<?xml version="1.0" standalone="no"?>
<!DOCTYPE svg PUBLIC "-//W3C//DTD SVG 20010904//EN"
 "http://www.w3.org/TR/2001/REC-SVG-20010904/DTD/svg10.dtd">
<svg version="1.0" xmlns="http://www.w3.org/2000/svg"
 width="603" height="450" viewBox="0 0 603 450"
 preserveAspectRatio="xMidYMid meet">

<g transform="translate(0,450) scale(0,-0.1)"
fill="#000000" stroke="none">
<path d="M3030 4022 c-71 -29 -121 -64 -205 -147 l-78 -76 -3 -96 c-2 -72 3
-123 21 -209 13 -62 29 -122 35 -133 14 -27 13 -29 -15 -23 -36 6 -40 -17 -16
-90 11 -35 24 -85 28 -113 7 -44 11 -51 39 -59 26 -8 32 -16 42 -60 7 -29 12
-62 12 -74 0 -23 -14 -29 -26 -11 -9 15 -24 -9 -24 -39 0 -30 -47 -59 -282
-175 l-187 -92 -1 -46 c-1 -115 128 -487 268 -774 99 -202 215 -370 421 -610
75 -86 94 -115 93 -137 -2 -25 2 -23 52 30 207 220 418 513 521 726 135 280
265 656 265 769 l0 42 -232 102 -233 102 -3 45 c-2 26 -5 46 -8 46 -3 0 -18
-7 -35 -15 -41 -22 -45 -6 -23 95 13 63 21 80 34 80 26 0 40 22 50 81 6 30 17
78 25 108 17 63 7 96 -27 85 -19 -6 -20 -3 -14 27 15 75 27 246 21 294 -15
125 -98 227 -245 303 -116 60 -196 73 -270 44z m-71 -1208 c39 -26 70 -48 68
-51 -2 -2 -34 7 -71 20 -36 14 -66 20 -66 14 0 -5 10 -37 22 -70 19 -52 20
-65 10 -103 -17 -63 -16 -78 6 -69 19 8 163 45 175 45 4 0 7 -264 7 -587 0
-322 -2 -584 -5 -582 -8 8 -132 508 -173 699 -38 172 -52 257 -68 418 -7 71 5
312 15 312 4 0 40 -21 80 -46z m537 -1 c13 -86 -3 -400 -26 -513 -22 -111
-169 -704 -194 -780 -13 -40 -14 14 -15 518 l-1 562 23 -5 c118 -29 183 -43
186 -40 2 2 -2 18 -8 36 -14 40 -14 112 0 162 6 21 9 42 7 46 -2 5 -38 -7 -81
-26 -44 -19 -81 -33 -83 -30 -3 2 26 24 63 47 37 24 77 49 88 56 31 20 33 18
41 -33z m-272 -199 c14 -6 16 -70 16 -621 l0 -614 -25 -92 c-14 -51 -28 -99
-31 -107 -4 -8 -17 21 -30 65 l-24 80 0 638 0 638 23 9 c27 11 50 12 71 4z"/>
<path d="M3162 2458 c-30 -30 2 -93 36 -72 31 20 37 41 18 63 -22 24 -37 26
-54 9z"/>
<path d="M3154 2106 c-12 -32 0 -61 28 -64 34 -4 54 27 38 58 -12 23 -58 27
-66 6z"/>
<path d="M3168 1739 c-22 -13 -23 -52 -2 -70 17 -14 40 -5 58 24 8 12 5 21 -8
36 -22 24 -24 24 -48 10z"/>
<path d="M53 3188 c14 -35 37 -45 103 -47 33 -1 43 -5 47 -21 5 -18 15 -20
173 -22 163 -3 169 -4 172 -24 2 -15 19 -27 60 -44 96 -38 160 -79 235 -149
57 -52 90 -74 153 -99 60 -25 93 -45 129 -82 30 -31 45 -53 40 -59 -12 -11
-97 -37 -147 -46 l-37 -6 70 -207 c92 -269 124 -351 197 -502 54 -111 87 -191
186 -457 15 -40 37 -84 48 -98 25 -31 162 -102 215 -111 54 -8 81 5 169 88
121 113 308 246 398 283 35 15 39 15 57 -1 10 -9 19 -21 19 -26 0 -4 14 -27
30 -50 17 -22 30 -51 30 -63 0 -12 14 -119 30 -238 l31 -217 -30 -202 c-17
-112 -33 -225 -36 -253 -4 -27 -9 -58 -12 -67 -4 -17 38 -18 791 -18 630 0
796 3 796 13 -1 6 -6 58 -13 114 l-13 103 180 0 c204 1 246 7 286 45 41 39 50
86 50 251 0 258 -36 605 -96 939 -15 82 -30 212 -35 315 -9 174 -22 278 -37
291 -4 3 -61 24 -127 47 -66 22 -127 43 -136 47 -13 5 -18 -3 -23 -43 -22
-165 -195 -637 -313 -851 -97 -177 -260 -397 -448 -605 -108 -119 -133 -134
-106 -64 8 21 -1 35 -71 113 -183 208 -330 414 -421 593 -145 282 -287 684
-287 810 l0 54 -27 -7 c-16 -4 -57 -13 -93 -21 -35 -8 -72 -22 -82 -32 -18
-17 -88 -202 -88 -232 0 -8 -17 -26 -37 -40 -21 -14 -88 -73 -149 -133 l-112
-107 -165 332 c-90 183 -176 350 -191 371 -14 21 -26 41 -26 46 0 4 -17 35
-39 68 -21 33 -42 70 -46 82 -3 12 -31 48 -61 80 l-54 58 47 7 c25 3 126 6
224 6 168 0 179 1 189 20 8 15 21 20 55 20 24 0 51 3 60 6 14 6 45 53 45 69 0
3 -398 5 -885 5 l-885 0 13 -32z m1035 -114 c4 -31 -25 -38 -66 -16 -57 29
-53 44 9 40 46 -3 54 -6 57 -24z m2904 -1859 l3 -60 -32 -3 c-39 -4 -38 -14
-18 163 8 72 15 137 16 145 2 22 27 -174 31 -245z"/>
</g>
</svg>
